# xmcd
#
# Track frame offsets:
#	150
#	41271
#	79977
#	122756
#	170875
#	196832
#
# Disc length: 3125 seconds
#
# Revision: 4
# Processed by: cddbd v1.5.2PL0 Copyright (c) Steve Scherf et al.
# Submitted via: audiograbber 1.83.01
#
DISCID=4a0c3306
DTITLE=Bill Bruford's Earthworks - Footloose in NYC- Disc 1-2019 Summerfold Rem
DTITLE=aster
DYEAR=2019
DGENRE=Jazz
TTITLE0=Revel Without A Pause
TTITLE1=Never The Same Way Once
TTITLE2=Original Sin
TTITLE3=Come To Dust
TTITLE4=Some Shiver While He Cavorts
TTITLE5=The Wooden Man Sings And The Stone Woman Dances
EXTD=
EXTT0=
EXTT1=
EXTT2=
EXTT3=
EXTT4=
EXTT5=
PLAYORDER=
